<?xml version="1.0" encoding="UTF-8"?>
<svg version="1.1" xmlns="http://www.w3.org/2000/svg" width="500" height="500">
<path d="M0 0 C3.51133328 2.47919839 6.72895756 5.22030109 9.95703125 8.0546875 C10.62492676 8.63911621 11.29282227 9.22354492 11.98095703 9.82568359 C19.49505374 16.44241072 26.18583502 23.27864333 32.4375 31.1171875 C33.78088472 32.79106864 35.15208926 34.44372398 36.5703125 36.0546875 C55.35007081 57.82832032 66.96519563 87.68892483 73.51953125 115.3671875 C73.73520752 116.26300537 73.95088379 117.15882324 74.1730957 118.08178711 C75.85770734 125.60629258 77.41450343 133.3288747 73.45703125 140.3046875 C70.76888503 144.06051996 68.10301551 146.19947988 63.58959961 147.42529297 C59.39553308 148.05459417 55.25866754 148.00960332 51.0234375 148 C50.08708969 148.00095673 49.15074188 148.00191345 48.1860199 148.00289917 C46.20319553 148.00357884 44.22036891 148.00173938 42.23754883 147.99755859 C39.24880767 147.99226154 36.26022054 147.99748258 33.27148438 148.00390625 C2.08174046 148.01822781 2.08174046 148.01822781 -3.35546875 142.8671875 C-7.29147149 138.68324758 -8.5048938 134.75728134 -9.98046875 129.3671875 C-14.71379619 113.40799814 -21.63530266 98.66159911 -32.35546875 85.8671875 C-33.05800781 84.95453125 -33.76054687 84.041875 -34.484375 83.1015625 C-38.63709668 77.71066865 -38.63709668 77.71066865 -43.66796875 73.1796875 C-47.82093427 69.60620554 -49.08598397 65.90757227 -49.79296875 60.5546875 C-48.76582138 51.89730254 -44.25295571 44.66812954 -39.90234375 37.265625 C-37.85153277 33.76173531 -35.8860714 30.21583275 -33.93359375 26.65625 C-33.32435059 25.55031494 -32.71510742 24.44437988 -32.08740234 23.30493164 C-30.87091824 21.09379665 -29.6600863 18.87954044 -28.45556641 16.66186523 C-21.01670683 3.20631183 -21.01670683 3.20631183 -15.10546875 -0.5703125 C-10.06383583 -1.6015556 -4.74023781 -2.27971636 0 0 Z " fill="#08AAF3" transform="translate(370.35546875,93.1328125)"/>
<path d="M0 0 C1.15840393 -0.00960754 2.31680786 -0.01921509 3.51031494 -0.02911377 C4.76342468 -0.03336365 6.01653442 -0.03761353 7.30761719 -0.04199219 C8.59633728 -0.04769226 9.88505737 -0.05339233 11.21282959 -0.05926514 C13.94315993 -0.06976635 16.67346091 -0.07561424 19.40380859 -0.07910156 C22.88840271 -0.08457363 26.37260358 -0.10857717 29.85707474 -0.13707352 C33.19474748 -0.16027747 36.53236801 -0.1621551 39.87011719 -0.16699219 C41.11513 -0.17933899 42.36014282 -0.19168579 43.6428833 -0.20440674 C51.55587414 -0.18412714 57.03960144 0.11411203 63.06152344 5.64941406 C66.33330066 9.98822014 67.52372562 15.20860446 69.04199219 20.34863281 C75.27318029 40.02285288 85.19406408 60.69989595 101.80712891 73.74658203 C105.68185839 77.2887377 107.54443079 82.1287176 108.04199219 87.28613281 C107.69764583 94.20868198 103.68122392 100.25481529 100.35449219 106.16113281 C99.76410156 107.21816406 99.17371094 108.27519531 98.56542969 109.36425781 C97.29985126 111.59383002 96.01893944 113.81474453 94.72558594 116.02832031 C92.81806466 119.3114981 91.00497356 122.63970162 89.20214844 125.98144531 C88.64027832 127.00955322 88.0784082 128.03766113 87.49951172 129.09692383 C86.38234036 131.14262209 85.27731401 133.19501159 84.18603516 135.25463867 C80.51505906 141.92107248 77.28449601 146.54754182 69.76464844 149.00878906 C68.60255859 149.11513672 68.60255859 149.11513672 67.41699219 149.22363281 C66.64484375 149.31773437 65.87269531 149.41183594 65.07714844 149.50878906 C56.94946139 148.47096389 51.41079469 142.85556776 45.79199219 137.34863281 C45.07591797 136.66220703 44.35984375 135.97578125 43.62207031 135.26855469 C41.51930532 133.24615014 39.43405944 131.20736081 37.35449219 129.16113281 C36.71705078 128.53762939 36.07960937 127.91412598 35.42285156 127.27172852 C30.30148905 122.21829404 25.83010266 116.79112058 21.35449219 111.16113281 C20.66162109 110.30406738 19.96875 109.44700195 19.25488281 108.56396484 C12.79013281 100.3042785 7.95487854 91.5559798 3.22949219 82.22363281 C2.83541168 81.45112183 2.44133118 80.67861084 2.03530884 79.88269043 C-4.02219698 67.96437804 -9.4154032 56.18606929 -12.64550781 43.16113281 C-12.89075195 42.1759668 -13.13599609 41.19080078 -13.38867188 40.17578125 C-19.42692362 15.32101067 -19.42692362 15.32101067 -14.85644531 6.95800781 C-11.03310046 1.28465739 -6.48991539 0.04342923 0 0 Z " fill="#FE9904" transform="translate(72.6455078125,259.8388671875)"/>
<path d="M0 0 C8.15060157 4.00120441 11.77097893 11.87360636 16 19.5 C17.15044926 21.557623 18.30150565 23.61490665 19.453125 25.671875 C20.03771484 26.71794922 20.62230469 27.76402344 21.22460938 28.84179688 C24.53672294 34.73364245 27.91837965 40.58608294 31.3046875 46.43554688 C31.77648437 47.25603516 32.24828125 48.07652344 32.734375 48.921875 C33.14913086 49.63956055 33.56388672 50.35724609 33.99121094 51.09667969 C36.53925375 55.90416801 36.68659507 60.68875307 36 66 C34.21780154 70.54740324 31.45832598 73.77681211 27.6875 76.8125 C22.7810083 80.76524601 19.50812399 85.81917125 16 91 C15.25363281 92.08796875 14.50726563 93.1759375 13.73828125 94.296875 C5.49369799 106.54206831 -0.09186898 118.92499464 -3.87182617 133.21142578 C-5.50244194 139.17038031 -7.13526171 143.31242003 -12.69799805 146.58935547 C-16.34646768 148.14801407 -19.0765682 148.49135786 -23.03125 148.671875 C-23.71513794 148.70448425 -24.39902588 148.73709351 -25.1036377 148.77069092 C-33.63403558 149.13775538 -42.17464567 149.22215333 -50.71191406 149.24023438 C-53.5243737 149.25008537 -56.33614352 149.28130644 -59.1484375 149.3125 C-60.96353743 149.31901993 -62.77864245 149.32427435 -64.59375 149.328125 C-65.83457336 149.3466452 -65.83457336 149.3466452 -67.10046387 149.36553955 C-73.34491136 149.34177639 -79.10406038 148.4178623 -84.05859375 144.28125 C-84.51363281 143.6934375 -84.96867187 143.105625 -85.4375 142.5 C-85.91058594 141.9121875 -86.38367188 141.324375 -86.87109375 140.71875 C-90.76889797 134.7843768 -88.77803771 126.90890175 -87.47216797 120.34814453 C-79.74269354 85.19843419 -64.57321142 52.62850643 -39.85620117 26.19702148 C-37.77787468 23.97183819 -35.78833387 21.73335566 -33.89453125 19.34765625 C-25.35777786 8.76912267 -13.98246188 -1.42395651 0 0 Z " fill="#F34639" transform="translate(144,92)"/>
<path d="M0 0 C1.28543198 -0.00287018 2.57086395 -0.00574036 3.89524841 -0.00869751 C6.60597647 -0.01310169 9.31640642 -0.00675098 12.02709961 0.00732422 C15.48932599 0.0244327 18.95085539 0.01455315 22.41305637 -0.00339317 C25.73375916 -0.01688049 29.05427746 -0.0074202 32.375 0 C33.61262589 -0.00607269 34.85025177 -0.01214539 36.12538147 -0.0184021 C42.85186238 0.03651941 48.06082491 0.1510664 53.265625 4.8984375 C57.63161761 10.50559857 58.05030055 14.53504244 57.62109375 21.3984375 C57.10941588 25.04544407 56.36441088 28.61848944 55.55859375 32.2109375 C55.22359863 33.71382324 55.22359863 33.71382324 54.88183594 35.24707031 C46.66342074 70.65893553 28.7321507 102.33258751 3.62109375 128.3984375 C3.11255859 128.92888672 2.60402344 129.45933594 2.08007812 130.00585938 C-16.64517559 149.44490929 -16.64517559 149.44490929 -26.05859375 149.63671875 C-31.38253063 149.08998449 -35.28089503 146.96087308 -38.97094727 143.15673828 C-42.20087786 139.12310552 -44.48800471 134.42692668 -46.94140625 129.8984375 C-48.17474388 127.65437746 -49.4091383 125.41089795 -50.64453125 123.16796875 C-51.26392578 122.03955566 -51.88332031 120.91114258 -52.52148438 119.74853516 C-55.83857057 113.76574642 -59.27924278 107.85304167 -62.73461914 101.94921875 C-63.2011792 101.14226562 -63.66773926 100.3353125 -64.1484375 99.50390625 C-64.55682861 98.80418701 -64.96521973 98.10446777 -65.38598633 97.38354492 C-68.0293003 92.09886681 -68.00078915 86.75270847 -66.50390625 81.0859375 C-64.38504153 76.58834729 -60.59825507 73.52337779 -57.06640625 70.125 C-42.36692668 55.21186521 -32.16419131 35.41693581 -27.23950195 15.15722656 C-25.93832021 10.15594167 -24.09319005 6.98787142 -20.37890625 3.3984375 C-13.83924734 -0.38865788 -7.4108306 -0.0364225 0 0 Z " fill="#8DC34D" transform="translate(388.37890625,259.6015625)"/>
<path d="M0 0 C18.59599978 4.61138932 37.86965521 2.19717398 56.15014648 -2.57543945 C61.23005359 -3.78326322 66.45033266 -3.57089233 71.36328125 -1.90234375 C77.83630078 2.61371639 81.36843639 9.58961851 85.23828125 16.28515625 C86.08495361 17.73535156 86.08495361 17.73535156 86.94873047 19.21484375 C88.09946496 21.18586204 89.24824026 23.15802551 90.39501953 25.13134766 C91.92432754 27.75566003 93.46607557 30.37197673 95.015625 32.984375 C95.46719971 33.74645264 95.91877441 34.50853027 96.3840332 35.29370117 C97.21889031 36.70196042 98.05460573 38.10971135 98.89135742 39.5168457 C107.08067649 53.39099189 107.08067649 53.39099189 105.61328125 61.34375 C104.12626962 66.48914819 102.61079249 68.92246106 98.05078125 71.97265625 C95.28034954 73.30553766 92.44342808 74.37319774 89.55078125 75.41015625 C88.72416992 75.70946045 87.89755859 76.00876465 87.04589844 76.31713867 C45.45489769 90.90205935 0.15682353 89.99375002 -41.51171875 76.41015625 C-42.80577637 75.98923706 -42.80577637 75.98923706 -44.12597656 75.55981445 C-49.82064332 73.60659592 -54.82974041 71.53064735 -58.76171875 66.78515625 C-61.11660322 61.2077983 -61.7523583 56.26953969 -59.46484375 50.5625 C-56.81511021 44.27134357 -53.36611179 38.44851165 -49.87866211 32.59716797 C-48.77419852 30.74360043 -47.68018306 28.88419789 -46.58789062 27.0234375 C-44.40614317 23.32068536 -42.18802312 19.64115703 -39.94921875 15.97265625 C-39.36306793 15.00960571 -39.36306793 15.00960571 -38.76507568 14.02709961 C-37.59163149 12.11106236 -36.4039538 10.20468102 -35.2109375 8.30078125 C-34.51315186 7.1809082 -33.81536621 6.06103516 -33.09643555 4.90722656 C-24.42006719 -6.95064127 -12.29156632 -3.14637842 0 0 Z " fill="#FEEB3E" transform="translate(227.94921875,361.02734375)"/>
<path d="M0 0 C0.77512939 0.25555664 1.55025879 0.51111328 2.34887695 0.77441406 C7.80383325 2.77775897 11.50894624 5.61150324 14.5625 10.625 C16.689777 17.12967374 15.12517869 22.51685392 12.5625 28.625 C10.40561046 32.84357446 8.03326765 36.92075721 5.625 41 C4.62835327 42.7018042 4.62835327 42.7018042 3.61157227 44.43798828 C1.61142432 47.84337114 -0.41135948 51.23501428 -2.4375 54.625 C-3.31776855 56.10613281 -3.31776855 56.10613281 -4.21582031 57.6171875 C-5.79300209 60.25598724 -7.39063596 62.88073216 -9 65.5 C-9.4633374 66.27134277 -9.9266748 67.04268555 -10.40405273 67.83740234 C-13.78569189 73.23554797 -17.23532376 76.55760792 -23.4375 78.625 C-29.94788766 79.01978646 -35.47519454 77.83676397 -41.75 76.1875 C-48.98725905 74.37692921 -55.94693114 72.80737907 -63.4375 72.625 C-64.12714844 72.58632812 -64.81679687 72.54765625 -65.52734375 72.5078125 C-77.4902855 72.10682004 -89.28191042 74.58302526 -100.71875 77.8203125 C-105.88850988 78.93897903 -110.47051019 79.29377654 -115.5625 77.5625 C-123.0121108 72.54211011 -127.17778845 64.4532468 -131.625 56.875 C-132.59977295 55.22359009 -132.59977295 55.22359009 -133.59423828 53.53881836 C-134.91373824 51.30124333 -136.23081829 49.06223943 -137.54541016 46.82177734 C-139.27516811 43.89926758 -141.04011439 41.00281816 -142.82421875 38.11328125 C-143.82056048 36.47150463 -144.81666993 34.82958702 -145.8125 33.1875 C-146.27035889 32.46272461 -146.72821777 31.73794922 -147.19995117 30.99121094 C-150.32968858 25.74852206 -151.71004633 20.77481318 -151.4375 14.625 C-149.71089984 9.13214711 -147.24515099 5.8747933 -142.4375 2.625 C-139.35811506 1.26416822 -136.20385125 0.21560152 -133 -0.8125 C-131.61868896 -1.2614563 -131.61868896 -1.2614563 -130.20947266 -1.71948242 C-87.41060528 -15.26750771 -42.48830419 -14.69017109 0 0 Z " fill="#9D2BB1" transform="translate(318.4375,64.375)"/>
<path d="M0 0 C7.30433748 5.84346998 11.02720344 11.79311714 12.1640625 21.140625 C12.6553347 31.22463336 9.23075053 37.72795945 2.6875 45.1875 C-2.4763216 50.66480824 -7.82001983 55.97281389 -13.1875 61.25 C-12.5275 62.11625 -11.8675 62.9825 -11.1875 63.875 C-8.94873065 67.65292328 -8.21271771 68.98131052 -9.1875 73.25 C-11.36098704 76.16198387 -13.91371522 78.5853062 -16.5625 81.0625 C-17.26117188 81.74248047 -17.95984375 82.42246094 -18.6796875 83.12304688 C-24.88228625 89.10497625 -24.88228625 89.10497625 -29 89.5625 C-32.90184802 89.17996588 -34.27273539 87.75897395 -37.1875 85.25 C-37.73492355 85.806306 -38.28234711 86.362612 -38.84635925 86.93577576 C-44.05618753 92.226398 -49.27604591 97.50683533 -54.50690746 102.77665615 C-57.19456198 105.48501458 -59.8784403 108.19688827 -62.5534668 110.91772461 C-65.14448295 113.552822 -67.74570252 116.17746812 -70.35372353 118.7957325 C-71.3374289 119.78671933 -72.31766425 120.78116562 -73.29399681 121.77941704 C-82.07292008 130.74715304 -91.81621546 139.93891455 -104.375 142.75 C-112.12728039 144.75425719 -116.62649656 148.49500806 -122.1875 154.25 C-124.84411459 156.48397136 -125.95581493 157.20544518 -129.4375 157.875 C-134.87687925 156.96843679 -137.38122901 154.05627099 -141.1875 150.25 C-141.93 149.59 -142.6725 148.93 -143.4375 148.25 C-146.7561508 145.21580498 -148.90256307 142.975294 -150.5625 138.75 C-149.93476632 132.89115229 -146.1695992 129.48305167 -142.3671875 125.19921875 C-137.87445477 119.87990099 -136.04765834 115.11645911 -134.18359375 108.44140625 C-131.84579869 100.95129423 -127.46335533 95.32860638 -122.171875 89.64453125 C-121.66078186 89.09344193 -121.14968872 88.5423526 -120.62310791 87.9745636 C-112.6131567 79.4173138 -104.24553025 71.2031505 -95.9375 62.9375 C-94.20940026 61.21442852 -92.48153402 59.49112283 -90.75390625 57.76757812 C-86.56778771 53.59235266 -82.37881353 49.42001011 -78.1875 45.25 C-79.39131448 42.75638429 -80.64178722 40.56856917 -82.1875 38.25 C-82.12626532 34.20851142 -81.42306975 32.53424118 -78.82421875 29.3984375 C-77.85367378 28.46081468 -76.87014816 27.53646817 -75.875 26.625 C-75.14506836 25.92890625 -75.14506836 25.92890625 -74.40039062 25.21875 C-73.00367656 23.88783 -71.59579579 22.56865886 -70.1875 21.25 C-69.48238281 20.48816406 -68.77726562 19.72632813 -68.05078125 18.94140625 C-66.1875 17.25 -66.1875 17.25 -62.6875 16.8125 C-59.12698214 17.25756473 -57.73062569 17.80859934 -55.1875 20.25 C-52.01573396 18.85569723 -49.96164623 17.23175415 -47.578125 14.73046875 C-46.90523438 14.03759766 -46.23234375 13.34472656 -45.5390625 12.63085938 C-44.15135181 11.18253307 -42.76588708 9.73205107 -41.3828125 8.27929688 C-29.31442727 -4.12177198 -15.8023811 -8.67581707 0 0 Z M-68.1875 55.25 C-69.96537053 57.04582882 -71.64436862 58.85649883 -73.3125 60.75 C-74.30587574 61.85674128 -75.30067519 62.96220629 -76.296875 64.06640625 C-76.78736328 64.61055176 -77.27785156 65.15469727 -77.78320312 65.71533203 C-80.7993155 69.01145205 -83.99922406 72.12226094 -87.1875 75.25 C-87.95094727 76.01562256 -88.71439453 76.78124512 -89.50097656 77.57006836 C-91.98787223 80.05086204 -94.50025182 82.50152601 -97.0234375 84.9453125 C-98.87007891 86.75491526 -100.71642426 88.56482018 -102.5625 90.375 C-103.48289062 91.261875 -104.40328125 92.14875 -105.3515625 93.0625 C-113.33378117 100.93068697 -119.73337498 108.93997269 -122.6875 119.875 C-124.71549753 126.51516583 -127.44604135 131.20793014 -132.1875 136.25 C-131.5275 137.57 -130.8675 138.89 -130.1875 140.25 C-129.46046875 139.66992188 -129.46046875 139.66992188 -128.71875 139.078125 C-122.42594779 134.18910174 -116.76234565 130.76892258 -108.9375 129.0625 C-97.16830359 125.98664399 -88.696738 116.0561461 -80.51171875 107.58203125 C-77.72156141 104.71750849 -74.76196216 102.13760506 -71.70336914 99.56567383 C-69.97305055 98.0638721 -68.50612137 96.46521661 -67.0625 94.6875 C-62.25139975 89.01962848 -56.89779245 83.87494429 -51.61035156 78.65698242 C-50.13043044 77.19356694 -48.65796377 75.72291273 -47.1875 74.25 C-50.30442909 71.07530062 -53.43233546 67.91164608 -56.5625 64.75 C-57.45195312 63.84378906 -58.34140625 62.93757813 -59.2578125 62.00390625 C-60.53398437 60.71806641 -60.53398437 60.71806641 -61.8359375 59.40625 C-62.62145996 58.61025391 -63.40698242 57.81425781 -64.21630859 56.99414062 C-65.99846779 55.02911402 -65.99846779 55.02911402 -68.1875 55.25 Z " fill="#494949" transform="translate(320.1875,173.75)"/>
<path d="M0 0 C0 3.72696377 -1.28002923 4.66643673 -3.81152344 7.22753906 C-4.61638184 8.01209473 -4.61638184 8.01209473 -5.4375 8.8125 C-5.97793945 9.34713867 -6.51837891 9.88177734 -7.07519531 10.43261719 C-11.3466589 14.56799875 -15.83663808 18.02715526 -21 21 C-21 20.01 -21 19.02 -21 18 C-18.9453125 16.30859375 -18.9453125 16.30859375 -16.125 14.4375 C-10.03108138 10.19309753 -5.09459083 5.39297251 0 0 Z " fill="#6C6C6E" transform="translate(239,281)"/>
<path d="M0 0 C0.99 0.33 1.98 0.66 3 1 C2.52691406 1.40089844 2.05382812 1.80179688 1.56640625 2.21484375 C-3.88180185 6.89839107 -8.97357003 11.86885274 -14 17 C-14 14 -14 14 -11.953125 11.66015625 C-10.61507812 10.37431641 -10.61507812 10.37431641 -9.25 9.0625 C-7.92742187 7.78052734 -7.92742187 7.78052734 -6.578125 6.47265625 C-5.30195313 5.24869141 -5.30195313 5.24869141 -4 4 C-2.66330675 2.67003507 -1.32866865 1.33798175 0 0 Z " fill="#6A696A" transform="translate(254,191)"/>
<path d="M0 0 C0 3 0 3 -1.28515625 4.62573242 C-2.16494141 5.4819519 -2.16494141 5.4819519 -3.0625 6.35546875 C-3.69414063 6.97744141 -4.32578125 7.59941406 -4.9765625 8.24023438 C-5.64429687 8.88283203 -6.31203125 9.52542969 -7 10.1875 C-8.00160156 11.16879883 -8.00160156 11.16879883 -9.0234375 12.16992188 C-10.67578441 13.78686135 -12.33471601 15.39640491 -14 17 C-14.66 16.67 -15.32 16.34 -16 16 C-11.03093773 10.1719243 -5.90436923 4.8836671 0 0 Z " fill="#F16356" transform="translate(120,102)"/>
<path d="M0 0 C0 0.66 0 1.32 0 2 C-1.4609375 3.2890625 -1.4609375 3.2890625 -3.375 4.625 C-4.00148438 5.07101563 -4.62796875 5.51703125 -5.2734375 5.9765625 C-7 7 -7 7 -9 7 C-7.4576387 2.93377477 -4.5679954 0 0 0 Z " fill="#5BC3F4" transform="translate(358,93)"/>
<path d="M0 0 C0.66 0.33 1.32 0.66 2 1 C-0.64 3.64 -3.28 6.28 -6 9 C-6.33 8.34 -6.66 7.68 -7 7 C-4.78071806 4.09197539 -3.07030857 2.04687238 0 0 Z " fill="#FFEB63" transform="translate(202,359)"/>
<path d="M0 0 C0.66 0.33 1.32 0.66 2 1 C-0.64 3.64 -3.28 6.28 -6 9 C-6 5.06368636 -4.57142871 3.87394974 -2 1 C-1.34 0.67 -0.68 0.34 0 0 Z " fill="#A8CD7B" transform="translate(370,262)"/>
<path d="M0 0 C0.66 0.33 1.32 0.66 2 1 C-1.96 4.465 -1.96 4.465 -6 8 C-6.66 7.34 -7.32 6.68 -8 6 C-5.36 4.02 -2.72 2.04 0 0 Z " fill="#9E9E9F" transform="translate(225,294)"/>
<path d="M0 0 C3.36591866 1.44253657 5.51047079 3.33264727 8 6 C7.67 6.66 7.34 7.32 7 8 C3.75700849 5.61042731 1.49097658 3.7952131 0 0 Z " fill="#9B9EA0" transform="translate(319,174)"/>
</svg>
